<svg width="159" height="40" viewBox="0 0 159 40" fill="none" xmlns="http://www.w3.org/2000/svg">
<path d="M70.1938 38.7358H66.2354L68.9507 21.5723H75.9863C78.1362 21.5723 79.6493 21.9697 80.5307 22.7593C81.4171 23.5541 81.8654 24.6697 81.8654 26.1064C81.8654 26.8349 81.7992 27.5176 81.6668 28.1442C81.5343 28.7657 81.2949 29.3923 80.9484 30.0343C80.5969 30.6711 80.1486 31.2112 79.5933 31.6544C79.0329 32.0976 78.2942 32.4644 77.3721 32.7497C76.4499 33.0299 75.375 33.1674 74.1574 33.1674H71.0752L70.1938 38.7358ZM71.5795 30.0343H74.3204C76.6232 30.0343 77.7694 28.9492 77.7694 26.7738C77.7694 26.086 77.5707 25.5713 77.1836 25.23C76.7913 24.8836 76.1188 24.7054 75.1712 24.7054H72.4303L71.5795 30.0343Z" fill="#FFC200"/>
<path d="M88.4727 35.5977L88.1823 38.4661C87.2857 38.8126 86.3687 38.9908 85.4415 38.9908C84.3869 38.9908 83.5769 38.7461 83.0216 38.2724C82.4662 37.7884 82.186 37.0904 82.186 36.1835C82.186 35.939 82.2013 35.6691 82.2472 35.3736L84.5041 20.9814H88.2944L86.1751 34.431C86.1547 34.6246 86.1496 34.7623 86.1496 34.8489C86.1496 35.2361 86.2158 35.4856 86.3585 35.6181C86.496 35.7506 86.7762 35.8169 87.194 35.8169C87.5404 35.822 87.9633 35.7505 88.4727 35.5977Z" fill="#FFC200"/>
<path d="M103.406 25.9336L101.352 38.7309H98.4026L98.4943 36.0157C97.1494 38.0026 95.4274 38.9959 93.3234 38.9959C92.1873 38.9959 91.3416 38.6853 90.7761 38.0536C90.2055 37.4218 89.9253 36.5811 89.9253 35.5317C89.9253 35.0884 89.9559 34.6961 90.017 34.3548L91.3722 25.9336H95.1472L93.9449 33.4175C93.8991 33.662 93.8838 33.9217 93.8838 34.1866C93.8838 35.1495 94.22 35.6235 94.9027 35.6235C95.4325 35.6235 96.0286 35.3229 96.6909 34.7217C97.3583 34.1206 97.9849 33.3716 98.5708 32.4647L99.6152 25.9386L103.406 25.9336Z" fill="#FFC200"/>
<path d="M103.747 38.3645L104.399 35.2057C104.511 35.3331 105.02 35.4962 105.927 35.6898C106.829 35.8732 107.68 35.9649 108.469 35.9649C110.11 35.9649 110.925 35.5574 110.925 34.7525C110.925 34.4621 110.716 34.2379 110.298 34.0647C109.891 33.8813 109.386 33.7336 108.795 33.6062C108.204 33.4839 107.613 33.3259 107.022 33.1221C106.437 32.9082 105.937 32.5668 105.52 32.0726C105.107 31.5785 104.903 30.9519 104.903 30.1928C104.903 28.7306 105.428 27.6099 106.482 26.8355C107.532 26.0612 109.121 25.6738 111.236 25.6738C111.934 25.6738 112.611 25.7197 113.273 25.8012C113.931 25.8929 114.44 25.9846 114.792 26.0865C115.133 26.1833 115.362 26.2648 115.469 26.3208L114.832 29.3726C114.562 29.1994 114.063 29.0465 113.329 28.9191C112.601 28.7867 111.893 28.7204 111.215 28.7204C109.534 28.7204 108.693 29.1077 108.693 29.8821C108.693 30.1623 108.897 30.3865 109.31 30.5495C109.728 30.7074 110.232 30.8449 110.813 30.9671C111.394 31.0945 111.979 31.2525 112.56 31.4512C113.151 31.655 113.65 32.0013 114.063 32.4955C114.481 32.9897 114.69 33.6163 114.69 34.3754C114.69 35.9496 114.129 37.1111 113.003 37.86C111.883 38.6038 110.339 38.9707 108.383 38.9707C107.634 38.9707 106.875 38.9197 106.11 38.8127C105.351 38.721 104.781 38.6242 104.399 38.5376C104.027 38.4663 103.808 38.4052 103.747 38.3645Z" fill="#FFC200"/>
<path d="M42.4488 3.72628L42.6883 2.16756C42.729 1.92302 42.6577 1.67844 42.4947 1.48994C42.3368 1.30144 42.1024 1.19442 41.8528 1.19442H32.3871C31.9693 1.19442 31.6178 1.49495 31.5516 1.90761L29.0094 17.9808C28.9737 18.2254 29.04 18.4752 29.203 18.6637C29.3609 18.8522 29.5953 18.9642 29.8398 18.9642H32.0254C32.4431 18.9642 32.7896 18.6637 32.8609 18.251L33.8441 12.0151H39.2596C39.6723 12.0151 40.0238 11.7146 40.0901 11.3019L40.3142 9.94174C40.3499 9.6972 40.2836 9.44765 40.1206 9.25915C39.9576 9.06555 39.7233 8.9584 39.4736 8.9584H34.3638L35.0312 4.44469H41.6082C42.0362 4.43959 42.3877 4.14403 42.4488 3.72628ZM92.0648 9.09099L91.9985 9.06537C91.4126 8.88706 90.73 8.79049 89.9811 8.79049C88.7635 8.79049 87.8363 9.28448 87.23 10.2626C86.6391 11.2255 86.3334 12.3108 86.3334 13.4826C86.3334 14.2213 86.4607 14.8426 86.7155 15.3266C86.9804 15.8259 87.3574 16.0858 87.8363 16.0858C88.3712 16.0858 88.9876 15.7393 89.6754 15.0617C90.3479 14.3994 90.9643 13.6048 91.4942 12.7082L92.0648 9.09099ZM96.0385 7.24172L94.3013 18.2662C94.235 18.6839 93.8835 18.9796 93.4658 18.9796H92.1769C91.9476 18.9796 91.7285 18.8878 91.5706 18.7197C91.4127 18.5566 91.326 18.3325 91.3362 18.1032L91.3872 16.7378L91.2343 16.906C91.2292 16.9111 90.7351 17.4613 90.1645 17.9045C89.3137 18.5668 88.3712 18.9234 88.2693 18.9642C87.7446 19.1578 87.1791 19.2545 86.5881 19.2545C85.289 19.2545 84.321 18.7909 83.6129 17.8433C82.9098 16.9008 82.5583 15.6478 82.5583 14.1296C82.5583 13.3399 82.6398 12.5604 82.7926 11.8166C82.9506 11.0728 83.2257 10.3187 83.618 9.56985C84.0102 8.82604 84.5044 8.1637 85.0852 7.60839C85.6609 7.05308 86.4251 6.59959 87.3472 6.25316C88.2693 5.91182 89.3239 5.73873 90.4702 5.73873C91.8813 5.73873 93.5269 5.91707 95.361 6.27878C95.8144 6.37048 96.1098 6.78831 96.0385 7.24172ZM105.27 5.86609C104.404 6.06987 103.558 6.59971 102.998 7.01237C102.361 7.48107 101.449 8.47458 101.434 8.48476L101.281 8.65292L101.362 6.90018C101.373 6.67092 101.291 6.44168 101.128 6.27356C100.97 6.10544 100.746 6.01385 100.517 6.01385H99.2175C98.7998 6.01385 98.4483 6.30929 98.382 6.72704L96.604 18.0012C96.5684 18.2458 96.6397 18.4904 96.7976 18.6789C96.9555 18.8674 97.1899 18.9744 97.4395 18.9744H99.4468C99.8645 18.9744 100.216 18.6739 100.282 18.2612L101.22 12.2597C101.755 11.5057 102.447 10.8586 103.288 10.3288C103.915 9.93653 104.557 9.68182 105.199 9.58502C105.55 9.52898 105.83 9.25918 105.897 8.90765L106.284 6.84421C106.34 6.56401 106.248 6.27871 106.039 6.08002C105.846 5.88133 105.55 5.80496 105.27 5.86609ZM64.9923 11.5109C64.9923 10.7671 64.8598 10.1455 64.6051 9.66661C64.3402 9.16735 63.9683 8.91263 63.4894 8.91263C62.9544 8.91263 62.3329 9.25409 61.6502 9.93676C60.9727 10.6042 60.3613 11.3936 59.8264 12.2903L59.2558 15.9025L59.3271 15.9229C59.913 16.1063 60.5906 16.1978 61.3446 16.1978C62.5673 16.1978 63.4945 15.7038 64.0956 14.7256C64.6866 13.7678 64.9923 12.6877 64.9923 11.5109ZM67.7077 7.1549C68.4056 8.0974 68.7622 9.3508 68.7622 10.8639C68.7622 11.8624 68.6247 12.8404 68.3547 13.7676C68.0847 14.6948 67.6567 15.5966 67.081 16.4525C66.5105 17.2982 65.6851 17.991 64.6255 18.5005C63.5607 19.0151 62.2972 19.2801 60.8759 19.2801C60.3155 19.2801 59.6073 19.2241 58.7718 19.107L58.6852 19.0968L58.5324 20.6251C58.5273 20.6404 58.5273 20.6555 58.5273 20.6759L58.084 23.3607C58.0127 23.7683 57.6663 24.064 57.2536 24.064H55.2617C55.012 24.064 54.7828 23.9569 54.6248 23.7684C54.4618 23.5799 54.3905 23.3352 54.4312 23.0856L57.0295 6.72704C57.0957 6.31438 57.4472 6.01883 57.865 6.01883H59.1539C59.3831 6.01883 59.6073 6.11053 59.7652 6.27356C59.9232 6.44168 60.0098 6.66582 59.9996 6.88998L59.9487 8.27581L60.1015 8.08227C60.1168 8.06699 61.3446 6.57422 63.2245 5.98326C63.7441 5.82023 64.2434 5.73873 64.7477 5.73873C66.0265 5.74382 66.9995 6.20222 67.7077 7.1549ZM114.185 6.01385H112.616L112.963 3.7723C112.998 3.52776 112.927 3.27808 112.769 3.09468C112.611 2.90618 112.372 2.79915 112.127 2.79915H110.543C110.171 2.79915 109.84 3.04366 109.733 3.40538L108.963 6.01385H108.097C107.68 6.01385 107.333 6.30941 107.267 6.72207L107.068 7.93451C107.033 8.17905 107.094 8.4286 107.262 8.6171C107.42 8.8056 107.654 8.91263 107.904 8.91263H108.428L107.491 14.9139C107.425 15.2909 107.389 15.6833 107.389 16.096C107.389 17.1608 107.669 17.9351 108.25 18.4649C108.821 18.9846 109.692 19.2545 110.848 19.2545C111.541 19.2545 112.519 18.9641 112.637 18.9234C112.728 18.8877 112.902 18.8318 112.922 18.8216C112.958 18.8064 112.993 18.7909 113.024 18.7756C113.268 18.6432 113.426 18.4038 113.457 18.1338L113.605 16.8908C113.63 16.631 113.538 16.3659 113.345 16.1876C113.289 16.1366 113.233 16.091 113.166 16.0502C113.121 16.0299 113.08 16.0093 113.034 15.994C113.003 15.9838 112.927 15.9685 112.626 15.9736C112.555 15.9736 112.479 15.9788 112.402 15.9788C112.265 15.9788 112.178 15.9736 112.132 15.9634C112.015 15.943 111.725 15.8819 111.577 15.7495C111.506 15.6884 111.287 15.4948 111.287 14.7816C111.287 14.7102 111.292 14.6033 111.312 14.4505L112.173 8.91785H113.951C114.353 8.91785 114.705 8.63252 114.781 8.24024L115.016 7.02754C115.067 6.77791 115 6.52337 114.837 6.32978C114.68 6.12599 114.44 6.01385 114.185 6.01385ZM82.2526 6.35515C82.0947 6.14118 81.84 6.01385 81.5751 6.01385H79.4761C79.1042 6.01385 78.7731 6.26358 78.6661 6.6151C78.4878 7.22645 78.1515 7.92931 77.6573 8.71387C76.9696 9.81939 76.4041 10.5022 75.9252 10.8079L75.8488 10.8435C75.6807 10.9301 75.4157 11.0573 74.4885 11.2204L74.3714 11.2408L75.8233 2.16756C75.859 1.92302 75.7927 1.67335 75.6297 1.48994C75.4718 1.30144 75.2374 1.18919 74.9929 1.18919H72.9856C72.5679 1.18919 72.2163 1.48997 72.1501 1.90263L69.5977 18.0065C69.557 18.251 69.6283 18.4956 69.7863 18.6841C69.9442 18.8726 70.1836 18.9846 70.4282 18.9846H72.4354C72.8532 18.9846 73.2047 18.6841 73.2709 18.2714L73.9281 14.0734H75.1865L76.9186 18.4498C77.046 18.7758 77.3568 18.9846 77.7032 18.9846H79.8837C80.3473 18.9846 80.7294 18.6075 80.7294 18.1388C80.7294 18.0267 80.7039 17.9097 80.658 17.8027L78.6763 12.6928L78.717 12.6572C79.5372 11.9185 80.3778 10.8689 81.2184 9.54945C81.7636 8.69356 82.1507 7.86822 82.38 7.10913C82.4615 6.84422 82.4106 6.56912 82.2526 6.35515ZM53.1882 4.90315C54.0237 4.90315 54.6503 4.68917 55.0477 4.25613C55.4501 3.818 55.6488 3.27809 55.6488 2.59542C55.6488 2.06559 55.5011 1.66829 55.2005 1.40337C54.905 1.13846 54.4465 1.00586 53.8352 1.00586C52.9997 1.00586 52.373 1.22494 51.9808 1.65288C51.5732 2.09101 51.3745 2.63614 51.3745 3.31881C51.3745 3.84864 51.5273 4.24606 51.8228 4.50588C52.1285 4.77589 52.5717 4.90315 53.1882 4.90315ZM53.8658 6.01385H51.8789C51.4611 6.01385 51.1147 6.30941 51.0434 6.72207L49.2654 18.0012C49.2297 18.2458 49.2959 18.4955 49.4589 18.6789C49.6169 18.8674 49.8512 18.9744 50.0958 18.9744H52.0827C52.5004 18.9744 52.8468 18.6739 52.9182 18.2612L54.6962 6.98699C54.7318 6.74245 54.6656 6.49278 54.5026 6.30938C54.3446 6.12597 54.1154 6.01385 53.8658 6.01385ZM48.1191 1.48994C48.277 1.67844 48.3534 1.92302 48.3127 2.16756L46.3564 14.6492C46.336 14.8632 46.3309 14.9955 46.3309 15.0821C46.3309 15.4998 46.4124 15.7903 46.5703 15.938C46.7181 16.0756 47.0441 16.152 47.1002 16.1622C47.2785 16.1877 47.4466 16.2795 47.574 16.4119C47.7421 16.5902 47.8287 16.8346 47.8083 17.0791L47.6962 18.2C47.6708 18.4394 47.5689 18.638 47.4211 18.745C47.2836 18.8367 47.1155 18.9235 46.9015 19.005C46.6875 19.0865 46.0863 19.2597 45.6686 19.2597C44.614 19.2597 43.7989 19.0151 43.2436 18.5311C42.6934 18.0522 42.4132 17.3542 42.4132 16.4525C42.4132 16.2079 42.4386 15.9381 42.4896 15.6477C42.5049 15.5255 44.614 2.06057 44.6395 1.91283C44.7057 1.50017 45.0573 1.19939 45.475 1.19939H47.4823C47.7268 1.1943 47.9561 1.30144 48.1191 1.48994Z" fill="#2A55E5"/>
<path d="M147.835 10.6948C147.835 10.6948 152.802 13.1555 155.253 14.1998C157.637 15.2137 157.907 19.0143 155.283 20.2981C152.659 21.582 151.936 21.7907 151.936 21.7907C151.936 21.7907 152.349 20.726 152.293 19.6969C152.125 17.8628 146.704 16.3752 143.112 15.4939C143.112 15.4939 140.356 6.84333 139.108 4.4336C137.855 2.00859 135.312 1 135.312 1L141.319 1.08134C141.319 1.08134 143.387 0.979403 144.304 3.19554C145.216 5.42186 147.835 10.6948 147.835 10.6948Z" fill="url(#paint0_linear_7444_98938)"/>
<path d="M147.484 29.6571C147.484 29.6571 145.048 34.5682 143.979 37.0798C142.96 39.4641 139.088 39.7341 137.804 37.1104C136.52 34.4867 136.388 34.0231 136.388 34.0231C136.388 34.0231 137.162 34.1759 138.395 34.1199C140.229 33.9517 141.803 28.5311 142.685 24.9395C142.685 24.9395 151.33 22.1783 153.745 20.9352C156.17 19.6819 157.173 17.1396 157.173 17.1396L157.092 24.0429C157.092 24.0429 157.194 25.2197 154.978 26.1367C152.757 27.0436 147.484 29.6571 147.484 29.6571Z" fill="url(#paint1_linear_7444_98938)"/>
<path d="M128.369 29.2846C128.369 29.2846 123.427 26.839 120.946 25.7793C118.561 24.7655 118.291 20.96 120.915 19.6813C123.539 18.3974 124.593 18.1631 124.593 18.1631C124.593 18.1631 123.911 19.2532 124.079 20.481C124.252 22.3201 129.5 23.6039 133.081 24.4853C133.081 24.4853 135.944 33.0849 137.085 35.5455C138.481 38.5411 140.794 38.9998 140.794 38.9998L133.983 38.8978C133.983 38.8978 132.806 38.9997 131.889 36.7836C130.982 34.5573 128.369 29.2846 128.369 29.2846Z" fill="url(#paint2_linear_7444_98938)"/>
<path d="M128.776 10.3225C128.776 10.3225 131.222 5.38599 132.282 2.89984C133.295 0.515586 137.096 0.250639 138.38 2.86924C139.664 5.49294 139.786 5.96678 139.786 5.96678C139.786 5.96678 138.818 5.98188 137.794 6.03792C135.955 6.21114 134.457 11.4586 133.581 15.0452C133.581 15.0452 124.961 17.8624 122.52 19.0494C119.163 20.6797 119.036 22.7686 119.036 22.7686L119.173 15.9469C119.173 15.9469 119.071 14.7702 121.287 13.8531C123.504 12.9361 128.776 10.3225 128.776 10.3225Z" fill="url(#paint3_linear_7444_98938)"/>
<defs>
<linearGradient id="paint0_linear_7444_98938" x1="135.442" y1="0.871007" x2="155.207" y2="20.6365" gradientUnits="userSpaceOnUse">
<stop offset="0.0411" stop-color="#FFF300"/>
<stop offset="0.2727" stop-color="#FFF300"/>
<stop offset="0.5022" stop-color="#FFE500"/>
<stop offset="0.8126" stop-color="#F2A930"/>
</linearGradient>
<linearGradient id="paint1_linear_7444_98938" x1="137.548" y1="37.1127" x2="157.347" y2="17.3136" gradientUnits="userSpaceOnUse">
<stop offset="0.1874" stop-color="#F2A930"/>
<stop offset="0.4978" stop-color="#FFE500"/>
<stop offset="0.7273" stop-color="#FFF300"/>
<stop offset="0.9589" stop-color="#FFF300"/>
</linearGradient>
<linearGradient id="paint2_linear_7444_98938" x1="120.946" y1="19.3873" x2="140.676" y2="39.1178" gradientUnits="userSpaceOnUse">
<stop offset="0.1874" stop-color="#F2A930"/>
<stop offset="0.4978" stop-color="#FFE500"/>
<stop offset="0.7273" stop-color="#FFF300"/>
<stop offset="0.9589" stop-color="#FFF300"/>
</linearGradient>
<linearGradient id="paint3_linear_7444_98938" x1="118.929" y1="22.6627" x2="138.681" y2="2.91085" gradientUnits="userSpaceOnUse">
<stop offset="0.0411" stop-color="#FFF300"/>
<stop offset="0.2727" stop-color="#FFF300"/>
<stop offset="0.5022" stop-color="#FFE500"/>
<stop offset="0.8126" stop-color="#F2A930"/>
</linearGradient>
</defs>
</svg>
